<svg width="33" height="32" viewBox="0 0 33 32" fill="none" xmlns="http://www.w3.org/2000/svg">
<path d="M16.0016 14.9998C15.7254 14.9998 15.5016 15.2237 15.5016 15.4998V18.8259C14.7107 19.1319 12.4163 19.8226 10.8515 18.2886C10.6544 18.0953 10.3377 18.0985 10.1444 18.2958C9.95132 18.4929 9.95445 18.8096 10.1515 19.0027C11.0055 19.8337 12.1587 20.2855 13.35 20.2559C14.2609 20.2418 15.1608 20.0543 16.0016 19.7034C16.8422 20.0543 17.7422 20.2418 18.6531 20.2559C19.8444 20.2855 20.9973 19.8338 21.8516 19.0027C22.0487 18.8096 22.0518 18.4929 21.8587 18.2958C21.6654 18.0985 21.3487 18.0953 21.1516 18.2886C19.5937 19.8157 17.2935 19.1288 16.5016 18.8248V15.4998C16.5016 15.2236 16.2777 14.9998 16.0016 14.9998V14.9998Z" fill="#4F46E5"/>
<path d="M31.473 20.9969C30.3286 21.0632 29.0069 20.0995 28.9942 20.0902L28.9944 20.0904C28.894 20.0163 28.7696 19.9821 28.6455 19.9949C26.4152 20.2245 24.3221 17.2453 24.3011 17.2151H24.3013C24.1879 17.0513 23.9879 16.9703 23.7926 17.0091C23.5971 17.048 23.4433 17.1993 23.4011 17.3939C23.2821 17.9323 23.1277 18.462 22.9388 18.9799C22.7342 19.579 22.4792 20.3245 22.108 21.681C21.379 24.3451 21.502 25.4433 21.5185 25.5598C21.5232 25.5935 21.5315 25.6266 21.5429 25.6585C21.9949 26.923 21.7893 27.4462 21.7072 27.5868C21.3098 27.792 19.9214 28.6745 19.0274 31.3406C18.9397 31.6024 19.0808 31.8859 19.3426 31.9736C19.6045 32.0613 19.8879 31.9203 19.9757 31.6584C20.4696 30.1852 21.1141 29.3573 21.5813 28.9144C21.6857 29.8352 21.8627 30.7466 22.1105 31.6396C22.1884 31.9042 22.4656 32.0557 22.7304 31.9783C22.9949 31.901 23.1471 31.624 23.0703 31.3593C22.7828 30.318 22.5991 29.2508 22.5221 28.1734C22.7721 27.8126 23.0674 26.9946 22.5063 25.3832C22.4936 25.1693 22.4748 24.13 23.0728 21.945C23.4357 20.6184 23.6851 19.8892 23.8851 19.3033C23.9708 19.0522 24.0487 18.8245 24.1217 18.5881C24.9936 19.572 26.6594 21.0939 28.5574 21.0037C28.9985 21.2972 30.282 22.0671 31.53 21.995V21.9952C31.6626 21.9876 31.7867 21.928 31.8751 21.8289C31.9635 21.7301 32.0088 21.5999 32.0012 21.4676C31.9938 21.335 31.9338 21.2111 31.8347 21.1227C31.7358 21.0345 31.6056 20.9892 31.4731 20.9968L31.473 20.9969Z" fill="#4F46E5"/>
<path d="M0.473212 21.9955C1.7239 22.0674 3.0047 21.298 3.44578 21.0042C5.34624 21.0937 7.00961 19.5725 7.88149 18.5886C7.95448 18.8248 8.03238 19.0525 8.1181 19.3038C8.31832 19.8898 8.56765 20.619 8.93038 21.9455C9.53107 24.1402 9.50941 25.179 9.49735 25.3828C8.93552 26.9944 9.23105 27.8129 9.48105 28.1739V28.1737C9.40404 29.2511 9.22034 30.3183 8.93284 31.3596C8.89534 31.4871 8.90985 31.6241 8.97368 31.7406C9.0373 31.8572 9.14467 31.9435 9.27212 31.9808C9.3998 32.0181 9.53686 32.0031 9.65315 31.9391C9.76967 31.8752 9.85583 31.7676 9.89266 31.64C10.1407 30.7458 10.3179 29.8335 10.4223 28.9114C10.8877 29.352 11.5317 30.1797 12.0275 31.6585V31.6587C12.1152 31.9205 12.3987 32.0616 12.6605 31.9739C12.9223 31.8862 13.0634 31.6027 12.9757 31.3408C12.0817 28.6748 10.6934 27.7922 10.296 27.5871C10.2138 27.4465 10.0083 26.9232 10.4603 25.6587C10.4717 25.6268 10.4799 25.5938 10.4846 25.5601C10.5009 25.4435 10.6239 24.3453 9.89511 21.6813C9.52391 20.3248 9.269 19.5793 9.06431 18.9801C8.87547 18.4623 8.72101 17.9326 8.60204 17.3942C8.55985 17.1995 8.40606 17.0482 8.21074 17.0094C8.0152 16.9705 7.81543 17.0515 7.70204 17.2154C7.68106 17.2455 5.5913 20.227 3.35764 19.9951C3.23376 19.9824 3.10965 20.0163 3.00942 20.0902C2.99603 20.0998 1.6744 21.0609 0.53017 20.9971C0.254724 20.9817 0.0187872 21.1924 0.00315865 21.4679C-0.0126893 21.7433 0.197799 21.9795 0.47325 21.9955L0.473212 21.9955Z" fill="#4F46E5"/>
<path d="M19.2175 21.3013C18.9696 21.1829 18.6725 21.2858 18.551 21.5323C18.3825 21.8419 18.105 22.0783 17.7727 22.1953C17.3597 22.3229 16.8602 22.2245 16.2879 21.9024V21.9026C16.2131 21.8602 16.1285 21.8381 16.0426 21.8381H15.9602H15.9604C15.8745 21.8381 15.7899 21.8602 15.7151 21.9026C15.1428 22.2245 14.643 22.3225 14.2303 22.1955V22.1953C13.8993 22.0787 13.6227 21.8441 13.4537 21.5363C13.3345 21.289 13.0386 21.1841 12.7901 21.3011C12.5419 21.418 12.4346 21.7133 12.5493 21.9627C12.8361 22.5176 13.3256 22.941 13.9163 23.1449C14.6185 23.3395 15.3694 23.2451 16.0015 22.8826C16.433 23.1125 16.912 23.2386 17.4008 23.2504C17.6334 23.2511 17.8649 23.2154 18.0868 23.1449C18.6774 22.9411 19.1669 22.5176 19.4538 21.9627C19.5703 21.7147 19.4649 21.4191 19.2176 21.3013L19.2175 21.3013Z" fill="#4F46E5"/>
<path d="M19.2175 23.8013C18.9696 23.6829 18.6725 23.7858 18.551 24.0323C18.3825 24.3419 18.105 24.5783 17.7727 24.6953C17.3597 24.8232 16.8602 24.7245 16.2879 24.4024V24.4026C16.2131 24.3602 16.1285 24.3381 16.0426 24.3381H15.9602H15.9604C15.8745 24.3381 15.7899 24.3602 15.7151 24.4026C15.1428 24.7245 14.643 24.8227 14.2303 24.6955V24.6953C13.8993 24.5787 13.6227 24.3441 13.4537 24.0363C13.3345 23.789 13.0386 23.6841 12.7901 23.8011C12.5419 23.918 12.4346 24.2133 12.5493 24.4627C12.8361 25.0176 13.3256 25.441 13.9163 25.6449C14.6185 25.8395 15.3694 25.7451 16.0015 25.3826C16.433 25.6125 16.912 25.7386 17.4008 25.7504C17.6334 25.7511 17.8649 25.7154 18.0868 25.6449C18.6774 25.4411 19.1669 25.0176 19.4538 24.4627C19.5703 24.2147 19.4649 23.9191 19.2176 23.8013L19.2175 23.8013Z" fill="#4F46E5"/>
<path d="M13.497 27.958C13.1459 28.7493 12.9782 30.325 14.4146 31.843C14.5057 31.9399 14.6314 31.9964 14.7644 32.0004C14.8972 32.0042 15.026 31.9551 15.1224 31.8638C15.2191 31.7725 15.2753 31.6464 15.2787 31.5136C15.2823 31.3808 15.2327 31.252 15.141 31.1558C13.7062 29.6393 14.43 28.3156 14.466 28.2524C14.4675 28.2497 14.4682 28.2468 14.4698 28.2441C15.0033 28.2602 15.5316 28.1357 16.0017 27.8825C16.4332 28.1125 16.9122 28.2386 17.401 28.2504C17.4454 28.2504 17.4883 28.243 17.5321 28.2406C17.5341 28.2444 17.535 28.2484 17.5372 28.252C17.5691 28.3078 18.3019 29.635 16.8624 31.1559C16.7707 31.2522 16.7211 31.3807 16.7247 31.5135C16.728 31.6463 16.7843 31.7725 16.8809 31.8638C16.9773 31.9551 17.1061 32.0042 17.239 32.0004C17.372 31.9963 17.4977 31.9399 17.5887 31.843C19.0254 30.3249 18.8575 28.7492 18.5064 27.958C18.9091 27.7214 19.2374 27.3765 19.4539 26.9627C19.57 26.7138 19.4637 26.4178 19.216 26.2997C18.968 26.1816 18.6713 26.2854 18.5512 26.5323C18.3827 26.8419 18.1053 27.0783 17.7729 27.1953C17.3599 27.3232 16.8604 27.2243 16.2881 26.9024C16.2133 26.8602 16.1287 26.8381 16.0428 26.8381H15.9604C15.8745 26.8381 15.7901 26.8602 15.7153 26.9024C15.143 27.2243 14.6432 27.3225 14.2305 27.1953C13.8995 27.0787 13.6229 26.8442 13.454 26.5364C13.3975 26.4163 13.2957 26.3234 13.1709 26.2785C13.0459 26.2337 12.9084 26.2402 12.7883 26.2966C12.6682 26.3533 12.5756 26.4553 12.5308 26.5801C12.4861 26.7051 12.4928 26.8426 12.5495 26.9627C12.766 27.3765 13.0943 27.7214 13.497 27.958Z" fill="#4F46E5"/>
<path d="M0.268063 15.122C0.684132 15.3381 1.04195 15.6513 1.31092 16.0354C1.43971 16.2204 1.67677 16.2966 1.88926 16.2209C2.10177 16.145 2.23703 15.9365 2.21985 15.7115C2.21895 15.6999 2.15333 14.5352 4.18527 14.2689C4.37188 14.2441 4.5288 14.1171 4.59175 13.9397C4.64331 13.795 5.88146 10.4026 8.78169 10.9702C8.95379 11.0037 9.1308 10.9448 9.24866 10.8149C9.25825 10.8041 10.0688 9.93806 11.7937 9.47938C12.1453 10.2727 13.4143 12.7341 15.7159 12.9798L15.7161 12.9801C15.7815 12.9932 15.8482 12.9999 15.915 12.9999H16.0882C16.1549 12.9999 16.2217 12.9932 16.2871 12.9801C18.5871 12.7343 19.856 10.2761 20.2085 9.48097C21.9192 9.9399 22.746 10.8058 22.7545 10.8149C22.8721 10.945 23.0494 11.004 23.2215 10.9703C26.1192 10.4013 27.3601 13.7951 27.4112 13.939C27.4737 14.1169 27.631 14.2444 27.8179 14.2689C29.7748 14.5256 29.7875 15.5986 29.7833 15.7116C29.7659 15.9366 29.9014 16.1453 30.1139 16.2209C30.3266 16.2966 30.5634 16.2207 30.6922 16.0354C30.9612 15.6513 31.319 15.3381 31.7353 15.1221C31.8525 15.06 31.9407 14.954 31.9797 14.8272C32.019 14.7004 32.0061 14.5634 31.944 14.4459C31.882 14.3288 31.7759 14.2408 31.6491 14.2018C31.5223 14.1629 31.3851 14.1759 31.2679 14.2379C30.9996 14.379 30.748 14.5497 30.5181 14.7473C30.2197 14.1901 29.5864 13.5692 28.2455 13.3241C27.6248 11.8352 25.9587 9.58438 23.2902 9.94552C22.4462 9.23723 21.4475 8.73769 20.3746 8.48683V7.95023C21.0723 6.96252 21.2018 5.68149 20.7156 4.57434C20.7784 3.4 20.3703 2.24914 19.5822 1.37634C18.7998 0.506914 17.6873 0.00737143 16.5179 0H15.4853C14.3159 0.00736629 13.2034 0.50692 12.421 1.37634C11.6329 2.24909 11.225 3.4 11.2875 4.57434C10.8014 5.68149 10.9308 6.96252 11.6286 7.95023V8.48683C10.5556 8.73773 9.55695 9.23729 8.71301 9.94552C6.04581 9.58391 4.37844 11.835 3.75764 13.3241C2.41678 13.5692 1.78353 14.1901 1.48507 14.7473C1.25516 14.5497 1.00359 14.379 0.735298 14.2379C0.618109 14.1754 0.480612 14.162 0.353601 14.2011C0.226366 14.2399 0.120121 14.3279 0.0578409 14.4455C-0.00421053 14.5629 -0.0169365 14.7004 0.0225726 14.8274C0.0618583 14.9542 0.150253 15.0602 0.26811 15.1221L0.268063 15.122ZM12.2972 4.6746C12.1068 2.69963 13.6146 1.00003 15.4851 1.00003H16.5175C18.388 1.00003 19.8958 2.69958 19.7054 4.6746C19.7019 4.71099 19.6978 4.74492 19.6934 4.77639H19.6936C19.9414 5.22527 20.0438 5.73976 19.9867 6.24936C19.9295 6.75874 19.7157 7.23799 19.3744 7.62079V8.88485C19.3744 8.88485 18.2275 11.9215 16.0014 11.9984C16.03 11.9993 16.059 12 16.088 12H15.9148C15.9438 12 15.9729 11.9996 16.0014 11.9984C13.7753 11.9214 12.6285 8.88485 12.6285 8.88485V7.62079C12.2872 7.23798 12.0733 6.75873 12.0162 6.24936C11.959 5.73976 12.0615 5.22524 12.3092 4.77639C12.3048 4.74491 12.3008 4.71099 12.2972 4.6746H12.2972Z" fill="#4F46E5"/>
</svg>
