<svg width="40" height="35" viewBox="0 0 40 35" fill="none" xmlns="http://www.w3.org/2000/svg">
<path d="M37.0132 5.05113e-05H29.8476C29.4668 5.05113e-05 29.158 0.308547 29.158 0.689698V5.51723C28.9443 5.47136 28.7279 5.44149 28.5099 5.42733L27.2202 5.3516V5.19981C27.2248 4.47476 26.9681 3.77252 26.497 3.22135C26.0256 2.67025 25.3717 2.30755 24.6547 2.1998L16.2756 0.882694C15.392 0.744457 14.4924 1.00276 13.8172 1.58896C13.1418 2.17547 12.7594 3.02982 12.7723 3.92391V5.24102L11.986 5.30999L10.8274 5.41344V1.66869C10.8274 1.22842 10.6535 0.806037 10.3435 0.493528C10.0334 0.181035 9.61256 0.00338124 9.17232 0H2.96549C2.177 0.00523399 1.42272 0.322345 0.867302 0.881803C0.311887 1.44122 0 2.19765 0 2.98614V13.0621C0 13.8543 0.314653 14.6138 0.87471 15.1738C1.43474 15.7339 2.19426 16.0482 2.98614 16.0482H9.19297C9.63508 16.0467 10.0584 15.87 10.3712 15.5575C10.6837 15.245 10.8601 14.8213 10.862 14.3795V10.6209L11.2896 10.6554L11.2413 12.4691C11.2151 13.4713 11.6591 14.4281 12.4414 15.0553L17.2689 18.9241L16.1243 33.4067C16.0966 33.7854 16.3798 34.1154 16.7585 34.1447C16.9417 34.1598 17.1231 34.1016 17.2628 33.9824C17.4026 33.8633 17.4894 33.6933 17.5033 33.5101L18.6757 18.6618C18.6942 18.434 18.5987 18.212 18.4204 18.0689L13.3103 13.979C12.8645 13.6234 12.6095 13.0803 12.6206 12.5101L12.669 10.6824H13.5104C13.6933 10.6824 13.8685 10.6098 13.9981 10.4805C14.1274 10.3512 14.2001 10.1757 14.2001 9.9928V6.48269V6.40695V3.9239C14.1896 3.435 14.3971 2.96667 14.7659 2.64557C15.1348 2.32447 15.6274 2.18406 16.1102 2.26195L17.0757 2.41374V3.17912C17.0757 3.55997 17.3845 3.86877 17.7653 3.86877C18.1465 3.86877 18.455 3.55997 18.455 3.17912V2.59292L19.8343 2.80659V3.62061C19.8343 4.00145 20.1431 4.31026 20.5239 4.31026C20.9051 4.31026 21.2136 4.00145 21.2136 3.62061V3.02055L22.5929 3.23422V4.09632C22.5929 4.47716 22.9017 4.78596 23.2825 4.78596C23.6637 4.78596 23.9722 4.47716 23.9722 4.09632V3.44792L24.5171 3.53751C24.9044 3.60001 25.2563 3.79982 25.5094 4.09939C25.7625 4.39926 25.8998 4.7798 25.8964 5.17232V13.1447C25.9078 13.2364 25.9078 13.3288 25.8964 13.4205L25.2964 16.0344C25.2859 16.112 25.2859 16.1908 25.2964 16.2687L27.2412 33.5446C27.2834 33.8928 27.5802 34.1542 27.9309 34.1514H28.0066C28.1889 34.1308 28.3551 34.0384 28.4691 33.8946C28.583 33.7512 28.635 33.568 28.6138 33.386L26.586 16.2276L27.1516 13.7448C27.2006 13.5487 27.224 13.3471 27.2206 13.1448V10.6688H28.4758C28.708 10.6571 28.9389 10.6248 29.1655 10.5725V15.4C29.1655 15.5829 29.2381 15.7584 29.3674 15.8877C29.4967 16.017 29.6722 16.0896 29.8551 16.0896H37.0136C37.8129 16.0896 38.5785 15.7695 39.1398 15.2005C39.7011 14.6312 40.0108 13.8613 39.9997 13.062V2.98602C39.9997 2.19383 39.6851 1.43428 39.125 0.874281C38.565 0.314248 37.8051 5.05113e-05 37.0132 5.05113e-05ZM9.46195 14.3794C9.46195 14.4561 9.43146 14.5296 9.37697 14.5841C9.32279 14.6383 9.2492 14.6688 9.17223 14.6688H2.9654C2.5433 14.6617 2.1409 14.4893 1.84439 14.1891C1.5479 13.8887 1.38103 13.4841 1.37919 13.062V2.98603C1.37919 2.55993 1.54852 2.15104 1.84994 1.84965C2.15104 1.54823 2.5599 1.3792 2.986 1.3792H9.19283C9.2698 1.3792 9.34339 1.40968 9.39758 1.46387C9.45207 1.51836 9.48255 1.59195 9.48255 1.66861L9.46195 14.3794ZM10.8412 9.21382V6.82071C10.8803 6.80254 10.9222 6.79084 10.9653 6.78622L12.1171 6.68278L12.8067 6.62059V9.29634H12.0204L10.9791 9.2206C10.933 9.22553 10.8865 9.22337 10.8412 9.21382ZM28.4206 9.21382L27.5447 9.24831H27.2205V6.73105L28.4412 6.78616C28.6773 6.79663 28.9104 6.84558 29.1308 6.93117V9.09682C28.9049 9.18888 28.6644 9.23998 28.4203 9.2483L28.4206 9.21382ZM38.6203 13.062C38.6184 13.4878 38.4485 13.8954 38.1477 14.1962C37.8466 14.4973 37.4389 14.6673 37.0134 14.6688H30.5375V1.37951H37.0134C37.4395 1.37951 37.8484 1.54853 38.1495 1.84995C38.4509 2.15137 38.6202 2.56023 38.6202 2.98634L38.6203 13.062Z" fill="#4F46E5"/>
</svg>
