<svg width="30" height="30" viewBox="0 0 30 30" fill="none" xmlns="http://www.w3.org/2000/svg">
<path d="M6.23939 22.6489C6.03727 22.6489 5.87341 22.8128 5.87341 23.0149V28.1929C5.87366 28.6709 6.06376 29.1294 6.40178 29.4674C6.7398 29.8054 7.19828 29.9955 7.67635 29.9958H22.3235C22.8015 29.9955 23.26 29.8054 23.598 29.4674C23.936 29.1294 24.1262 28.6709 24.1264 28.1929V23.0149C24.1181 22.8187 23.9564 22.6639 23.7602 22.6639C23.5637 22.6639 23.402 22.8187 23.3937 23.0149V28.1929C23.3932 28.4767 23.2804 28.7485 23.0797 28.9491C22.8793 29.1498 22.6073 29.2626 22.3235 29.2631H7.67636C7.39256 29.2626 7.12052 29.1498 6.92011 28.9491C6.71946 28.7485 6.60662 28.4767 6.60613 28.1929V23.0149C6.60589 22.8125 6.44178 22.6489 6.23942 22.6489H6.23939Z" fill="#4F46E5"/>
<path d="M0.194074 8.05189C0.247057 8.08034 0.306422 8.09531 0.366517 8.09506C0.501917 8.09506 0.626284 8.02025 0.69006 7.90078C0.697664 7.88631 1.4951 6.44204 4.09478 6.06156C4.28881 6.02574 4.42005 5.84275 4.39135 5.6475C4.36265 5.45199 4.18456 5.31463 3.98833 5.33622C1.02663 5.76965 0.0822405 7.48327 0.0432443 7.55617L0.042999 7.55593C-0.0519294 7.73475 0.0155256 7.95674 0.194098 8.05191L0.194074 8.05189Z" fill="#4F46E5"/>
<path d="M0.561459 21.0958C1.68638 20.3876 2.75931 19.1398 3.25728 18.5125C3.68729 19.0362 4.16022 19.5229 4.67163 19.9671L6.00259 21.1205L6.00872 21.1254C6.00872 21.1254 6.00872 21.1289 6.01363 21.1303C6.02663 21.1406 7.31249 22.1819 7.8391 23.1854V23.185C7.90238 23.3059 8.02773 23.3814 8.16412 23.3814C8.22323 23.3814 8.28161 23.367 8.33435 23.3395C8.51317 23.2451 8.5821 23.0236 8.48815 22.8445C7.90238 21.7284 6.58638 20.6508 6.47843 20.5635L5.15558 19.4138H5.15582C4.57594 18.9114 4.04855 18.3519 3.58153 17.7433L3.54449 17.6952C2.58026 16.4493 2.84319 14.8365 2.84319 14.8159C2.86968 14.6209 2.73722 14.4396 2.54344 14.4055C2.34941 14.3714 2.16323 14.4965 2.12128 14.6888C2.10828 14.7644 1.82398 16.4505 2.79508 17.9108C2.39181 18.4274 1.28409 19.7714 0.168712 20.4754C0.0107433 20.5882 -0.031694 20.8046 0.0718185 20.9687C0.175331 21.1328 0.388988 21.1877 0.558731 21.0935L0.561459 21.0958Z" fill="#4F46E5"/>
<path d="M4.35427 7.17144C4.47716 7.33235 4.70725 7.36302 4.86792 7.24013C5.82185 6.51823 6.23668 5.93517 6.30538 5.83137C6.37406 5.74404 7.88507 3.79075 10.1771 3.99139C10.3206 4.01812 11.3111 4.20774 11.9265 4.50307C12.0146 4.54992 12.1181 4.55851 12.2128 4.52736C12.3075 4.4962 12.3855 4.42777 12.4287 4.33774C12.4718 4.24797 12.4765 4.14421 12.4417 4.05075C12.4068 3.95729 12.3355 3.88199 12.244 3.84249C11.8105 3.63645 11.2431 3.47774 10.8298 3.38084C11.1953 2.78526 11.759 1.68291 11.8757 0.392393C11.8895 0.193946 11.7425 0.0202777 11.5441 0.00163362C11.3459 -0.0170092 11.169 0.126001 11.1455 0.323707C11.0214 1.68512 10.3166 2.84389 10.0411 3.25106C7.41892 3.13503 5.78284 5.31151 5.71069 5.40426C5.70848 5.40745 5.70627 5.41088 5.70456 5.41456C5.7021 5.41726 5.69965 5.41996 5.69769 5.4229C5.69769 5.4283 5.33637 5.97237 4.42438 6.65923C4.26395 6.78163 4.2328 7.01049 4.35422 7.1714L4.35427 7.17144Z" fill="#4F46E5"/>
<path d="M8.97476 16.3761C8.81899 16.4961 8.78539 16.7173 8.89872 16.878C9.01204 17.0387 9.23183 17.0816 9.39716 16.9752C13.7929 13.8749 13.4433 9.21422 13.4261 9.01956L13.4259 9.01931C13.4085 8.81768 13.2309 8.66854 13.0292 8.68595C12.8276 8.70337 12.6785 8.88097 12.6959 9.0826C12.7001 9.1265 13.029 13.5153 8.97474 16.3757L8.97476 16.3761Z" fill="#4F46E5"/>
<path d="M11.1281 24.0768C11.1751 24.077 11.2218 24.0684 11.2654 24.0513C12.0754 23.6885 12.7895 23.142 13.3514 22.4551C13.4802 22.2991 13.4581 22.068 13.3019 21.9393C13.1459 21.8105 12.915 21.8326 12.7863 21.9888C12.2999 22.5785 11.6861 23.0507 10.9914 23.3701C10.8271 23.4346 10.7324 23.6073 10.766 23.7805C10.7999 23.9539 10.9524 24.0782 11.1288 24.0768L11.1281 24.0768Z" fill="#4F46E5"/>
<path d="M25.9052 6.06208C28.4739 6.43788 29.2761 7.84021 29.3104 7.90351L29.3107 7.90326C29.3749 8.02174 29.4988 8.09557 29.6335 8.09557C29.6936 8.09582 29.7529 8.08086 29.8059 8.0524C29.9845 7.95723 30.052 7.73523 29.957 7.55641C29.9178 7.48356 28.9734 5.77063 26.0119 5.33646L26.0117 5.3367C25.8155 5.31512 25.6374 5.45249 25.6087 5.64798C25.58 5.84324 25.7112 6.02623 25.9052 6.06205L25.9052 6.06208Z" fill="#4F46E5"/>
<path d="M26.7448 18.5126C27.2447 19.1396 28.3157 20.3876 29.4406 21.0958C29.6104 21.1898 29.824 21.1351 29.9275 20.971C30.0311 20.8068 29.9886 20.5905 29.8306 20.4777C28.7153 19.7751 27.608 18.4294 27.205 17.9131C28.1754 16.4528 27.8919 14.7667 27.8781 14.6911C27.8325 14.5034 27.6493 14.383 27.4592 14.4161C27.2688 14.449 27.1366 14.6239 27.157 14.8159C27.157 14.8324 27.4241 16.4479 26.4584 17.6938L26.4221 17.7418C25.956 18.3504 25.4298 18.9104 24.8512 19.413L23.5283 20.5627C23.4204 20.6501 22.1046 21.7304 21.5186 22.8437H21.5188C21.4239 23.0228 21.4923 23.245 21.6717 23.34C21.8507 23.4347 22.073 23.3662 22.1679 23.1871C22.6948 22.1837 23.9804 21.1424 23.9934 21.132C23.9934 21.132 23.9934 21.1286 23.9983 21.1271L24.0044 21.1222L25.332 19.9691V19.9693C25.8429 19.5241 26.3156 19.0367 26.7449 18.5125L26.7448 18.5126Z" fill="#4F46E5"/>
<path d="M17.9163 4.54205C17.9713 4.54205 18.0255 4.52954 18.075 4.50574C18.689 4.21114 19.6815 4.02079 19.825 3.99406C22.1045 3.79414 23.6211 5.73589 23.696 5.83328C23.7708 5.93091 24.1768 6.52014 25.1335 7.24273C25.2107 7.30577 25.3103 7.33497 25.4092 7.32319C25.5083 7.31141 25.5983 7.25966 25.6584 7.18018C25.7185 7.10071 25.7438 7.00014 25.7283 6.90153C25.7126 6.80316 25.6577 6.7151 25.5757 6.65819C24.6691 5.97133 24.31 5.43368 24.3024 5.42187C24.2948 5.4101 24.2975 5.41647 24.2955 5.41304C24.2936 5.40961 24.2955 5.40617 24.2894 5.40347C24.2207 5.30806 22.5875 3.13202 19.9582 3.25102C19.6835 2.84506 18.9787 1.69042 18.8558 0.329323V0.329078C18.8325 0.131372 18.6557 -0.0116392 18.4572 0.00700491C18.259 0.0256477 18.1118 0.199072 18.1258 0.397764C18.2426 1.68828 18.8065 2.7906 19.1717 3.38622C18.7597 3.48311 18.1911 3.63961 17.7576 3.84786V3.84762C17.6035 3.92194 17.5214 4.09267 17.5594 4.25947C17.5972 4.42603 17.7453 4.54451 17.9163 4.54475L17.9163 4.54205Z" fill="#4F46E5"/>
<path d="M20.6033 16.9752C20.6825 17.036 20.7831 17.062 20.8819 17.0471C20.9808 17.0321 21.0694 16.9776 21.127 16.896C21.1844 16.8143 21.2062 16.7125 21.1871 16.6144C21.1682 16.5165 21.1098 16.4304 21.0257 16.3762C16.9879 13.5273 17.3004 9.13332 17.3045 9.08182C17.3217 8.88019 17.1723 8.70284 16.9707 8.68543C16.7691 8.66825 16.5917 8.81764 16.5745 9.01927C16.5574 9.21649 16.2083 13.8744 20.6033 16.9749L20.6033 16.9752Z" fill="#4F46E5"/>
<path d="M18.7377 24.051C18.9236 24.1162 19.1277 24.0225 19.2001 23.8393C19.2722 23.6558 19.1866 23.4483 19.0061 23.369C18.3104 23.0521 17.6966 22.5799 17.2122 21.9885C17.1517 21.91 17.0616 21.8595 16.963 21.8485C16.8644 21.8374 16.7656 21.8669 16.689 21.9302C16.6127 21.9934 16.5651 22.0849 16.5575 22.1838C16.5497 22.2826 16.5826 22.3805 16.6483 22.4548C17.2112 23.1421 17.9265 23.6887 18.7377 24.051L18.7377 24.051Z" fill="#4F46E5"/>
<path d="M15 27.9918C15.2026 27.9918 15.3667 27.8275 15.3667 27.6249V26.1139C15.3711 26.014 15.3343 25.9166 15.2652 25.8445C15.196 25.7722 15.1003 25.7314 15.0003 25.7314C14.9004 25.7314 14.8047 25.7722 14.7356 25.8445C14.6662 25.9166 14.6296 26.014 14.634 26.1139V27.6249C14.6338 27.7222 14.6723 27.8155 14.741 27.8841C14.8097 27.9531 14.9029 27.9918 15 27.9918L15 27.9918Z" fill="#4F46E5"/>
<path d="M15 23.8473C15.0972 23.8475 15.1906 23.809 15.2593 23.7403C15.3282 23.6716 15.3667 23.5784 15.3667 23.4813V13.2707C15.3584 13.0745 15.1967 12.9199 15.0003 12.9199C14.804 12.9199 14.6424 13.0745 14.634 13.2707V23.4813C14.6338 23.5784 14.6723 23.6716 14.741 23.7403C14.8097 23.809 14.9029 23.8475 15 23.8473Z" fill="#4F46E5"/>
</svg>
