<svg width="40" height="25" viewBox="0 0 40 25" fill="none" xmlns="http://www.w3.org/2000/svg">
<path d="M11.0778 0H1.64286C0.736857 0 0 0.736357 0 1.64286C0 2.54714 0.736357 3.28378 1.64286 3.28378H11.0778C11.9855 3.28378 12.7201 2.54743 12.7201 1.64286C12.7201 0.736357 11.9849 0 11.0778 0V0Z" fill="white"/>
<path d="M11.0778 15.7212H7.80851C6.90251 15.7212 6.16565 16.458 6.16565 17.3635C6.16565 18.2678 6.90251 19.0047 7.80851 19.0047H11.0778C11.9854 19.0047 12.7198 18.2678 12.7198 17.3635C12.7195 16.458 11.9849 15.7212 11.0778 15.7212Z" fill="white"/>
<path d="M11.078 7.86084H4.44547C3.53947 7.86084 2.80261 8.5972 2.80261 9.50312C2.80261 10.408 3.53897 11.1446 4.44547 11.1446H11.078C11.9856 11.1446 12.72 10.4077 12.72 9.50312C12.7197 8.59713 11.985 7.86084 11.078 7.86084V7.86084Z" fill="white"/>
<path d="M37.1972 0H18.3486C16.8006 0 15.5459 1.25471 15.5459 2.80271V16.202C15.5459 17.75 16.8006 19.0047 18.3486 19.0047H23.1837V23.279C23.1837 23.7321 23.4566 24.1408 23.8756 24.3147C24.0149 24.3727 24.16 24.4004 24.3045 24.4004C24.5961 24.4004 24.8826 24.2868 25.0969 24.0719L30.1641 19.0047H37.1973C38.7453 19.0047 40.0001 17.75 40.0001 16.202V2.80275C40.0001 1.25475 38.7453 3.59671e-05 37.1973 3.59671e-05L37.1972 0Z" fill="white"/>
</svg>
