<svg width="40" height="30" viewBox="0 0 40 30" fill="none" xmlns="http://www.w3.org/2000/svg">
<path fill-rule="evenodd" clip-rule="evenodd" d="M34.542 29.9996C34.501 29.9996 34.4595 29.9962 34.4181 29.9882C34.0547 29.9201 33.8159 29.5708 33.8836 29.2075L35.866 18.6021L35.9457 18.4859C36.1516 18.1841 40.8828 11.1037 36.1169 4.12863C34.7721 3.9633 28.7393 3.42677 24.5417 6.46098C22.3169 8.0695 20.9367 10.4503 20.4396 13.5369V29.3308C20.4396 29.7002 20.1398 30 19.7704 30C19.401 30 19.1013 29.7002 19.1013 29.3308L19.1093 13.3798C19.6573 9.90066 21.223 7.20597 23.7642 5.37246C28.947 1.63077 36.2965 2.79437 36.6067 2.84655L36.8812 2.89136L37.0425 3.11763C42.25 10.4086 37.8058 18.0443 37.1314 19.1162L35.199 29.4543C35.1389 29.7762 34.8578 30.0003 34.5421 30.0003" fill="#4F46E5"/>
<path fill-rule="evenodd" clip-rule="evenodd" d="M4.99822 29.9995C4.68235 29.9995 4.40143 29.7755 4.34115 29.4535L2.40871 19.1155C1.73438 18.0435 -2.70986 10.4079 2.49788 3.11685L2.65895 2.89058L2.93339 2.84578C3.24322 2.79425 10.5932 1.63 15.776 5.37168C18.3171 7.2056 19.8835 9.90017 20.4308 13.379L20.4396 13.4834V29.3301C20.4396 29.6995 20.1398 29.9992 19.7704 29.9992C19.4005 29.9992 19.1014 29.6995 19.1014 29.3301V13.5362C18.6036 10.4498 17.2239 8.06903 14.9986 6.46022C10.8006 3.42601 4.76778 3.96253 3.4229 4.12787C-1.34308 11.1029 3.38817 18.1834 3.59428 18.4851L3.67381 18.6007L5.65643 29.2066C5.72386 29.57 5.48505 29.9193 5.12168 29.9873C5.08023 29.9954 5.03879 29.9988 4.99802 29.9988" fill="#4F46E5"/>
<path fill-rule="evenodd" clip-rule="evenodd" d="M5.98291 2.63453C8.66745 2.63453 12.6224 3.0949 15.7767 5.37125C17.6348 6.71338 18.9723 8.5146 19.7707 10.7474C20.5689 8.51454 21.9057 6.71338 23.7644 5.37194C28.064 2.26737 33.8565 2.54093 35.8821 2.75238C35.4825 1.91678 34.6294 1.33788 33.6425 1.33788H5.98331C5.00049 1.33788 4.1494 1.91208 3.74795 2.74298C4.28583 2.68943 5.06008 2.63455 5.98331 2.63455L5.98291 2.63453ZM19.7706 17.7849L19.1096 13.5877C18.6198 10.4758 17.2367 8.0785 14.9993 6.46075C10.8087 3.4317 4.7903 3.96174 3.43108 4.12748L2.16443 6.00234V3.81785C2.16443 1.7129 3.87733 0 5.98297 0H33.6422C35.7478 0 37.4607 1.7129 37.4607 3.81785V6.17239L36.1647 4.20858C36.1479 4.1817 36.13 4.15504 36.1125 4.12816C34.7589 3.96305 28.7349 3.42962 24.5419 6.46073C22.3046 8.07866 20.9217 10.476 20.4317 13.5877L19.7706 17.7849Z" fill="#4F46E5"/>
<path fill-rule="evenodd" clip-rule="evenodd" d="M24.6064 22.2186C24.5033 22.2186 24.3992 22.1953 24.3013 22.1451C21.1411 20.5218 19.0998 17.1222 19.1005 13.4834C19.1005 13.1142 19.4002 12.8145 19.7696 12.8145H19.7703C20.1395 12.8145 20.4386 13.1149 20.4386 13.4841C20.4379 16.6256 22.1942 19.5581 24.9128 20.954C25.2415 21.1234 25.3712 21.5262 25.2027 21.8555C25.0835 22.0863 24.8494 22.2187 24.6064 22.2187" fill="#4F46E5"/>
<path fill-rule="evenodd" clip-rule="evenodd" d="M14.9755 22.2187C14.7327 22.2187 14.4986 22.0863 14.3793 21.8555C14.2109 21.5262 14.3406 21.1234 14.669 20.954C17.3876 19.5583 19.1439 16.6258 19.1433 13.4841C19.1433 13.1149 19.4424 12.8145 19.8118 12.8145H19.8125C20.1819 12.8145 20.4816 13.1142 20.4816 13.4834C20.4823 17.122 18.4407 20.5215 15.2806 22.1451C15.1829 22.1953 15.0785 22.2186 14.9755 22.2186" fill="#4F46E5"/>
<path fill-rule="evenodd" clip-rule="evenodd" d="M29.8409 13.5693C29.8435 13.5693 29.8671 13.649 29.9381 13.7687C30.0924 14.0303 30.3335 14.2405 30.6359 14.3776L32.255 15.1122L33.2198 13.5928C33.3932 13.315 33.4775 13.0059 33.4613 12.7034C33.4521 12.541 33.4205 12.4599 33.4199 12.4593C33.2693 12.0914 32.9355 11.8143 32.5608 11.9261C32.3092 12.0022 32.1273 12.2204 32.0959 12.4814C32.0643 12.7458 31.8797 12.9664 31.6254 13.0428C31.3705 13.1197 31.0949 13.0395 30.9222 12.8367C30.7468 12.63 30.4966 12.5518 30.2564 12.6232C29.8818 12.737 29.758 13.154 29.8303 13.5063C29.835 13.5278 29.8384 13.5493 29.8409 13.5706V13.5693L29.8409 13.5693ZM32.5079 16.6304C32.4149 16.6304 32.3213 16.6111 32.2317 16.5708L30.0839 15.5967C29.5299 15.3458 29.081 14.9491 28.7859 14.4493C28.593 14.1233 28.5337 13.8704 28.5155 13.7541C28.3047 12.6754 28.8836 11.6411 29.8691 11.3427C30.2952 11.2134 30.735 11.2343 31.1318 11.3882C31.3833 11.0402 31.7453 10.7752 32.1735 10.6453C33.159 10.3482 34.2141 10.887 34.6364 11.9019C34.6859 12.0089 34.7769 12.2525 34.7977 12.6313C34.8291 13.21 34.6752 13.7889 34.3528 14.3054L33.0734 16.3199C32.947 16.5186 32.7308 16.6304 32.5079 16.6304" fill="#4F46E5"/>
</svg>
