<svg width="156" height="41" viewBox="0 0 156 41" fill="none" xmlns="http://www.w3.org/2000/svg">
<path d="M56.4097 32.7777C53.9525 32.7777 51.4954 31.8454 49.6247 29.9818L46.9876 27.3548C46.5292 26.8981 46.5292 26.1587 46.9876 25.7025C47.4459 25.2458 48.1882 25.2458 48.6462 25.7025L51.2833 28.3295C54.1105 31.1446 58.7091 31.1458 61.5363 28.3306C64.3611 25.5143 64.3611 20.933 61.5363 18.1169C58.7092 15.3029 54.1106 15.3006 51.2833 18.1157L39.3753 29.9802C35.6346 33.7074 29.5459 33.7074 25.8052 29.9802C22.0649 26.2534 22.0649 20.1891 25.8052 16.462C29.5468 12.7348 35.6343 12.7348 39.3753 16.462L42.0124 19.089C42.4708 19.5456 42.4708 20.2851 42.0124 20.7413C41.5541 21.1979 40.8118 21.1979 40.3538 20.7413L37.7167 18.1143C34.8895 15.2992 30.2909 15.2992 27.4637 18.1143C24.6381 20.9302 24.6381 25.5116 27.4637 28.3281C30.2896 31.1444 34.8894 31.1444 37.7167 28.3281L49.6247 16.4626C53.3662 12.7366 59.4537 12.7366 63.1948 16.4638C66.9351 20.191 66.9351 26.2552 63.1948 29.9819C61.3236 31.8444 58.8664 32.7767 56.4093 32.7767L56.4097 32.7777Z" fill="#4F46E5"/>
<path d="M17.7188 25.707C17.7188 24.2891 17.2207 23.1699 16.2246 22.3496C15.2285 21.5176 13.4062 20.7324 10.7578 19.9941C8.10938 19.2441 6.17578 18.4297 4.95703 17.5508C3.22266 16.3086 2.35547 14.6797 2.35547 12.6641C2.35547 10.707 3.1582 9.11914 4.76367 7.90039C6.38086 6.66992 8.44336 6.05469 10.9512 6.05469C12.6504 6.05469 14.168 6.38281 15.5039 7.03906C16.8516 7.69531 17.8945 8.60937 18.6328 9.78125C19.3711 10.9531 19.7402 12.2598 19.7402 13.7012H17.5605C17.5605 11.9551 16.9629 10.5547 15.7676 9.5C14.5723 8.43359 12.9668 7.90039 10.9512 7.90039C8.99414 7.90039 7.43555 8.33984 6.27539 9.21875C5.11523 10.0859 4.53516 11.2227 4.53516 12.6289C4.53516 13.9297 5.05664 14.9902 6.09961 15.8105C7.14258 16.6309 8.8125 17.3574 11.1094 17.9902C13.4062 18.6113 15.1465 19.2617 16.3301 19.9414C17.5137 20.6094 18.4043 21.4121 19.002 22.3496C19.5996 23.2871 19.8984 24.3945 19.8984 25.6719C19.8984 27.6875 19.0898 29.3047 17.4727 30.5234C15.8672 31.7422 13.7461 32.3516 11.1094 32.3516C9.30469 32.3516 7.64648 32.0293 6.13477 31.3848C4.63477 30.7402 3.49219 29.8379 2.70703 28.6777C1.93359 27.5176 1.54688 26.1875 1.54688 24.6875H3.70898C3.70898 26.4922 4.38281 27.916 5.73047 28.959C7.07812 30.002 8.87109 30.5234 11.1094 30.5234C13.1016 30.5234 14.7012 30.084 15.9082 29.2051C17.1152 28.3262 17.7188 27.1602 17.7188 25.707Z" fill="#444444"/>
<path d="M70.6582 13.9805L70.7285 17.0742C71.4316 15.9258 72.3105 15.0645 73.3652 14.4902C74.4199 13.916 75.5918 13.6289 76.8809 13.6289C79.8809 13.6289 81.7852 14.8594 82.5938 17.3203C83.2734 16.1367 84.1816 15.2285 85.3184 14.5957C86.4551 13.9512 87.709 13.6289 89.0801 13.6289C93.1582 13.6289 95.2383 15.8555 95.3203 20.3086V33H93.2109V20.4668C93.1992 18.7676 92.8301 17.5078 92.1035 16.6875C91.3887 15.8672 90.2168 15.457 88.5879 15.457C87.0762 15.4805 85.7988 15.9727 84.7559 16.9336C83.7129 17.8828 83.1328 19.043 83.0156 20.4141V33H80.9062V20.3086C80.8945 18.6797 80.5078 17.4668 79.7461 16.6699C78.9961 15.8613 77.8359 15.457 76.2656 15.457C74.9414 15.457 73.8047 15.8379 72.8555 16.5996C71.9062 17.3496 71.2031 18.4688 70.7461 19.957V33H68.6367V13.9805H70.6582ZM112.67 33C112.459 32.4023 112.324 31.5176 112.266 30.3457C111.527 31.3066 110.584 32.0508 109.436 32.5781C108.299 33.0938 107.092 33.3516 105.814 33.3516C103.986 33.3516 102.504 32.8418 101.367 31.8223C100.242 30.8027 99.6797 29.5137 99.6797 27.9551C99.6797 26.1035 100.447 24.6387 101.982 23.5605C103.529 22.4824 105.68 21.9434 108.434 21.9434H112.248V19.7812C112.248 18.4219 111.826 17.3555 110.982 16.582C110.15 15.7969 108.932 15.4043 107.326 15.4043C105.861 15.4043 104.648 15.7793 103.688 16.5293C102.727 17.2793 102.246 18.1816 102.246 19.2363L100.137 19.2188C100.137 17.707 100.84 16.4004 102.246 15.2988C103.652 14.1855 105.381 13.6289 107.432 13.6289C109.553 13.6289 111.223 14.1621 112.441 15.2285C113.672 16.2832 114.305 17.7598 114.34 19.6582V28.6582C114.34 30.498 114.533 31.875 114.92 32.7891V33H112.67ZM106.061 31.4883C107.467 31.4883 108.721 31.1484 109.822 30.4688C110.936 29.7891 111.744 28.8809 112.248 27.7441V23.5605H108.486C106.389 23.584 104.748 23.9707 103.564 24.7207C102.381 25.459 101.789 26.4785 101.789 27.7793C101.789 28.8457 102.182 29.7305 102.967 30.4336C103.764 31.1367 104.795 31.4883 106.061 31.4883ZM123.234 9.11133V13.9805H127.172V15.7031H123.234V28.377C123.234 29.4316 123.422 30.2168 123.797 30.7324C124.184 31.248 124.822 31.5059 125.713 31.5059C126.064 31.5059 126.633 31.4473 127.418 31.3301L127.506 33.0527C126.955 33.252 126.205 33.3516 125.256 33.3516C123.814 33.3516 122.766 32.9355 122.109 32.1035C121.453 31.2598 121.125 30.0234 121.125 28.3945V15.7031H117.627V13.9805H121.125V9.11133H123.234ZM133.887 33H131.777V13.9805H133.887V33ZM131.408 8.47852C131.408 8.08008 131.537 7.74609 131.795 7.47656C132.053 7.19531 132.404 7.05469 132.85 7.05469C133.295 7.05469 133.646 7.19531 133.904 7.47656C134.174 7.74609 134.309 8.08008 134.309 8.47852C134.309 8.87695 134.174 9.21094 133.904 9.48047C133.646 9.75 133.295 9.88477 132.85 9.88477C132.404 9.88477 132.053 9.75 131.795 9.48047C131.537 9.21094 131.408 8.87695 131.408 8.47852ZM146.648 31.5762C148.113 31.5762 149.338 31.166 150.322 30.3457C151.318 29.5137 151.857 28.4414 151.939 27.1289H153.961C153.902 28.2891 153.539 29.3496 152.871 30.3105C152.203 31.2598 151.312 32.0039 150.199 32.543C149.098 33.082 147.914 33.3516 146.648 33.3516C144.152 33.3516 142.172 32.4844 140.707 30.75C139.254 29.0156 138.527 26.6836 138.527 23.7539V23.1211C138.527 21.2461 138.855 19.5879 139.512 18.1465C140.168 16.7051 141.105 15.5918 142.324 14.8066C143.555 14.0215 144.99 13.6289 146.631 13.6289C148.717 13.6289 150.434 14.25 151.781 15.4922C153.141 16.7344 153.867 18.3691 153.961 20.3965H151.939C151.846 18.9082 151.307 17.707 150.322 16.793C149.35 15.8789 148.119 15.4219 146.631 15.4219C144.732 15.4219 143.256 16.1074 142.201 17.4785C141.158 18.8496 140.637 20.7715 140.637 23.2441V23.8594C140.637 26.2852 141.158 28.1777 142.201 29.5371C143.256 30.8965 144.738 31.5762 146.648 31.5762Z" fill="#444444"/>
</svg>
