<svg width="30" height="42" viewBox="0 0 30 42" fill="none" xmlns="http://www.w3.org/2000/svg">
<path d="M23.7271 9.88258C23.4059 9.88624 23.1312 9.65248 23.083 9.33499C22.6603 6.5757 23.1395 3.75367 24.4489 1.28859H5.55398C6.59847 3.27203 7.11758 5.48991 7.06141 7.73071C7.06141 7.90153 6.99358 8.06562 6.87287 8.18632C6.75217 8.30703 6.58808 8.37517 6.41726 8.37517C6.06157 8.37517 5.77311 8.08671 5.77311 7.73071C5.82567 5.34269 5.17877 2.99127 3.91124 0.966528C3.79665 0.767597 3.79603 0.523139 3.91032 0.323911C4.0243 0.12498 4.23576 0.0015305 4.46525 5.08293e-06H25.5247C25.756 -0.000911656 25.9696 0.122234 26.0854 0.322385C26.2003 0.521621 26.2003 0.7673 26.0854 0.966535C24.5566 3.39978 23.9467 6.29878 24.3653 9.14123C24.391 9.31052 24.3485 9.48317 24.2471 9.62067C24.1456 9.75848 23.9935 9.85046 23.8242 9.87582L23.7271 9.88258Z" fill="#FACC15"/>
<path d="M25.5247 41.2304H16.3636C16.0424 41.2337 15.7677 41.0003 15.7194 40.6828C15.3854 38.0713 15.5141 35.422 16.0995 32.8554C15.383 33.0006 14.645 33.0006 13.9284 32.8554C14.5063 35.4231 14.6346 38.0713 14.3086 40.6828C14.2603 41.0003 13.9856 41.2337 13.6644 41.2304H4.46495C4.23638 41.2288 4.02523 41.1063 3.91095 40.908C-2.67292 29.4665 0.451529 22.4379 3.20232 16.2407C3.45993 15.6546 3.71782 15.0747 3.9626 14.5014C4.02463 14.3377 4.15082 14.206 4.31186 14.1372C4.4729 14.0685 4.65502 14.0681 4.81636 14.1366C4.9777 14.205 5.10421 14.3361 5.16686 14.4996C5.22919 14.6634 5.22247 14.8452 5.14791 15.0038C4.90315 15.5835 4.64555 16.1699 4.38123 16.7623C1.6497 22.9083 -1.17193 29.2606 4.84509 39.9542L13.1105 39.9545C13.3272 37.2982 13.0986 34.6244 12.434 32.0435C12.3772 31.8039 12.4618 31.5527 12.6522 31.3966C12.8428 31.2404 13.1056 31.2062 13.3296 31.3092C14.4016 31.7984 15.633 31.7984 16.7053 31.3092C16.9311 31.2047 17.1969 31.2398 17.3879 31.3993C17.5752 31.5564 17.6577 31.8057 17.6006 32.0435C16.9189 34.617 16.6964 37.2908 16.9436 39.9412H25.1512C31.1939 29.2539 28.2628 22.65 25.905 17.3353H25.9047C25.759 17.0098 25.9047 16.6276 26.2302 16.4818C26.5556 16.3358 26.9379 16.4815 27.0836 16.8069C29.4479 22.1475 32.6948 29.4656 26.085 40.907H26.0853C25.9695 41.1072 25.7559 41.2303 25.5245 41.2294L25.5247 41.2304Z" fill="#FACC15"/>
<path d="M15.011 32.9647C14.2419 32.9666 13.4813 32.8019 12.7821 32.4816C12.6718 32.4312 12.578 32.3508 12.5114 32.2497C9.96662 28.3845 6.06928 25.7172 0.980007 24.3003C0.655491 24.2092 0.45595 23.8835 0.52256 23.5532C0.753571 22.4402 1.07473 21.3479 1.4824 20.2869C1.60585 19.9651 1.96093 19.7977 2.28759 19.9068C10.5319 22.6832 19.4584 22.6832 27.7019 19.9068C28.0307 19.7937 28.39 19.9618 28.5138 20.2869C28.9221 21.3488 29.2472 22.4409 29.4865 23.5532C29.5561 23.8875 29.3526 24.2184 29.0226 24.3067C23.8688 25.7175 20.0039 28.391 17.4975 32.2499C17.4281 32.3486 17.3349 32.4283 17.2267 32.4818C16.5313 32.7996 15.7756 32.9643 15.0107 32.9649L15.011 32.9647ZM13.4776 31.38C14.4588 31.7791 15.5567 31.7791 16.5379 31.38C19.1148 27.5148 22.98 24.7509 28.1334 23.2304C27.9852 22.5862 27.7921 21.9805 27.5666 21.2976C19.4208 23.9035 10.6649 23.9035 2.51918 21.2976C2.28725 21.9418 2.10054 22.5859 1.94593 23.2304C6.98357 24.7506 10.8747 27.4886 13.4906 31.38H13.4776Z" fill="#FACC15"/>
<path d="M28.0757 17.7162H16.5568C7.87283 17.7162 1.32056 15.1393 1.32056 11.6927V3.86534C1.32056 3.50965 1.60902 3.22119 1.96471 3.22119C2.3207 3.22119 2.60886 3.50965 2.60886 3.86534C2.60886 6.10732 8.33591 8.60048 16.5559 8.60048L28.0748 8.60018C28.2456 8.60018 28.4094 8.66832 28.5304 8.78903C28.6511 8.90973 28.7189 9.07382 28.7189 9.24463V17.072C28.7189 17.2428 28.6511 17.4066 28.5304 17.5273C28.4094 17.6483 28.2456 17.7162 28.0748 17.7162L28.0757 17.7162ZM2.60973 6.36469V11.6923C2.60973 13.9279 8.33679 16.4275 16.5568 16.4275L27.4319 16.4272V9.87567H16.5576C10.1668 9.87567 4.92916 8.47768 2.60973 6.36462V6.36469Z" fill="#FACC15"/>
<path d="M23.077 17.7162C22.7213 17.7162 22.4329 17.4278 22.4329 17.0721V13.7865C22.4329 13.4306 22.7213 13.1421 23.077 13.1421C23.4327 13.1421 23.7212 13.4306 23.7212 13.7865V17.0721C23.7212 17.2429 23.6533 17.4067 23.5326 17.5274C23.4116 17.6484 23.2478 17.7162 23.077 17.7162Z" fill="#FACC15"/>
<path d="M19.0507 17.7159C18.6947 17.7159 18.4062 17.4275 18.4062 17.0718V13.4254C18.4062 13.0697 18.6947 12.7812 19.0507 12.7812C19.4064 12.7812 19.6949 13.0697 19.6949 13.4254V17.0718C19.6949 17.2426 19.627 17.4064 19.506 17.5271C19.3853 17.6481 19.2215 17.7159 19.0507 17.7159Z" fill="#FACC15"/>
<path d="M15.011 17.6904C14.6553 17.6904 14.3668 17.4019 14.3668 17.0459V13.0646C14.3668 12.7089 14.6553 12.4204 15.011 12.4204C15.3667 12.4204 15.6551 12.7089 15.6551 13.0646V17.0459C15.6551 17.217 15.5873 17.3808 15.4666 17.5015C15.3456 17.6222 15.1818 17.6904 15.011 17.6904V17.6904Z" fill="#FACC15"/>
<path d="M10.9909 17.3099C10.6349 17.3099 10.3464 17.0214 10.3464 16.6657V12.7037C10.3464 12.348 10.6349 12.0596 10.9909 12.0596C11.3466 12.0596 11.635 12.348 11.635 12.7037V16.6657C11.635 16.8366 11.5672 17.0003 11.4462 17.1211C11.3255 17.2421 11.1617 17.3099 10.9909 17.3099Z" fill="#FACC15"/>
<path d="M6.96459 16.3896C6.6089 16.3896 6.32043 16.1011 6.32043 15.7454V12.3502C6.32043 11.9945 6.6089 11.7061 6.96459 11.7061C7.32027 11.7061 7.60874 11.9945 7.60874 12.3502V15.7454C7.60874 15.9162 7.5409 16.08 7.42019 16.2007C7.29949 16.3217 7.1354 16.3896 6.96459 16.3896V16.3896Z" fill="#FACC15"/>
</svg>
