<svg width="40" height="41" viewBox="0 0 40 41" fill="none" xmlns="http://www.w3.org/2000/svg">
<path d="M9.09674 16.4766H6.13791C5.56647 16.4763 5.01812 16.7016 4.61141 17.1028C4.20468 17.5043 3.97284 18.0499 3.96545 18.6214V20.9595C3.96545 21.1424 4.03812 21.3176 4.16743 21.4472C4.29674 21.5765 4.47224 21.6492 4.65513 21.6492H6.09667V21.8838V21.8835C6.00615 22.5069 5.96458 23.1365 5.97228 23.7662C5.96428 24.3962 6.00584 25.0258 6.09667 25.6493V25.8839L5.51721 25.8836C5.10741 25.8836 4.71451 26.0465 4.42485 26.3362C4.13512 26.626 3.97225 27.0188 3.97225 27.4286V29.125C3.97225 29.6451 4.17854 30.1442 4.54554 30.5124C4.91285 30.881 5.41098 31.0888 5.93103 31.0906H9.31044C9.83109 31.0888 10.3302 30.8813 10.6984 30.513C11.0665 30.1448 11.2741 29.646 11.276 29.1251V27.456C11.2741 27.0468 11.1109 26.6552 10.8215 26.3658C10.5321 26.0763 10.1402 25.9132 9.73098 25.9113H9.1309V25.6699H9.13121C9.20418 25.0474 9.23897 24.4208 9.23466 23.7939C9.23897 23.1695 9.20418 22.5451 9.13121 21.925V21.6769H10.5863V21.6766C10.7692 21.6766 10.9447 21.6039 11.074 21.4746C11.2033 21.3453 11.276 21.1698 11.276 20.9869V18.6214C11.2671 18.0493 11.0334 17.5037 10.6257 17.1025C10.2178 16.7013 9.66876 16.4763 9.09677 16.4766L9.09674 16.4766ZM9.8966 27.4562V29.1526C9.8966 29.4762 9.63428 29.7389 9.31038 29.7389H5.92419C5.60306 29.7352 5.34474 29.4738 5.34474 29.1526V27.4559C5.34474 27.3644 5.41894 27.2905 5.51039 27.2905H9.73127H9.73097C9.77499 27.2905 9.81718 27.3078 9.84828 27.3389C9.87906 27.37 9.89661 27.4121 9.89661 27.4559L9.8966 27.4562ZM7.48274 25.9112L7.44148 25.518C7.35465 24.9475 7.31555 24.3708 7.32417 23.7938C7.31525 23.2168 7.35466 22.6401 7.44148 22.0696L7.48274 21.6697H7.74475V22.049C7.81434 22.6257 7.84667 23.2061 7.84143 23.787C7.85775 24.3646 7.83712 24.9429 7.77924 25.518V25.8973L7.48274 25.9112ZM9.8966 20.2971H5.34475V18.6212C5.34844 18.1846 5.70128 17.8317 6.13783 17.8281H9.09666C9.53571 17.8281 9.8929 18.1822 9.89652 18.6212L9.8966 20.2971Z" fill="#EF4444"/>
<path d="M38.4564 37.9321C39.5066 36.7498 40.058 35.2067 39.9952 33.6269C39.932 32.0468 39.2599 30.5523 38.1192 29.4571C36.9787 28.3619 35.4584 27.7511 33.8771 27.7527C32.3811 27.7542 30.9367 28.301 29.8148 29.2906C29.6562 29.4353 29.5112 29.5803 29.3665 29.7389C28.9074 30.2574 28.5392 30.8498 28.2769 31.4905H21.9731V13.9176C21.9713 12.7048 21.4879 11.5425 20.6291 10.6863C19.7702 9.83008 18.6066 9.35006 17.3938 9.35188C17.0059 9.35188 16.634 9.19793 16.3599 8.92391C16.0856 8.64957 15.9317 8.27765 15.9317 7.89003V7.20035H16.5524C17.101 7.20035 17.6276 6.98237 18.0154 6.59412C18.4034 6.20617 18.6214 5.67996 18.6214 5.1313V2.06898C18.6214 1.52033 18.4034 0.993801 18.0154 0.605928C17.6275 0.218055 17.101 0 16.5524 0H5.41433C4.86567 0 4.33914 0.217984 3.95127 0.605928C3.5634 0.993872 3.34534 1.5204 3.34534 2.06898V5.06233C3.34534 5.61099 3.56333 6.1372 3.95127 6.52515C4.33922 6.9134 4.86574 7.13138 5.41433 7.13138H6.05566V7.82106C6.05566 8.21023 5.89925 8.58309 5.62123 8.85557C5.35029 9.13052 4.97989 9.28477 4.5935 9.28292C3.36532 9.28108 2.18736 9.77185 1.32404 10.6456C0.460729 11.5194 -0.0162102 12.7032 0.000420804 13.9315V35.0978C0.00226819 36.3093 0.48473 37.4704 1.34217 38.3267C2.19934 39.1826 3.3613 39.6632 4.57284 39.6632H17.3937C17.9818 39.6626 18.5634 39.5431 19.104 39.3116C19.6176 39.5354 20.1715 39.6527 20.7315 39.6564H28.9666C29.6353 39.6527 30.2933 39.4871 30.8838 39.1737C31.7921 39.7066 32.8241 39.992 33.8772 40.0013C35.6278 40.001 37.2938 39.2472 38.4497 37.9322L38.4564 37.9321ZM33.8771 29.1319C35.0172 29.1325 36.1191 29.5435 36.9809 30.2901C37.8428 31.0368 38.4071 32.0685 38.5703 33.1972C38.7337 34.3256 38.485 35.475 37.8701 36.4353L31.3182 29.8834C32.0818 29.3929 32.9697 29.1322 33.8771 29.1318L33.8771 29.1319ZM4.70425 5.08311V2.06919C4.70425 1.68833 5.01306 1.37951 5.39392 1.37951H6.77327V3.1037C6.77327 3.48456 7.08209 3.79338 7.46294 3.79338C7.8438 3.79338 8.15262 3.48456 8.15262 3.1037V1.37951H10.3184L10.318 3.1037C10.318 3.48456 10.6269 3.79338 11.0077 3.79338C11.3889 3.79338 11.6974 3.48456 11.6974 3.1037V1.37951H13.8631V3.1037C13.8631 3.48456 14.1719 3.79338 14.5528 3.79338C14.9337 3.79338 15.2425 3.48456 15.2425 3.1037V1.37951H16.6218C16.8047 1.37951 16.9802 1.45218 17.1095 1.58149C17.2388 1.7108 17.3115 1.8863 17.3115 2.06919V5.06253C17.3115 5.24542 17.2388 5.42061 17.1095 5.55023C16.9802 5.67954 16.8047 5.75221 16.6218 5.75221H5.41442C5.23153 5.75775 5.05388 5.69032 4.92057 5.5647C4.78725 5.4394 4.70935 5.26605 4.70412 5.08316L4.70425 5.08311ZM1.37994 15.1728H13.8492V32.4147H1.37994V15.1728ZM17.3804 38.3049H4.58712C3.73547 38.3086 2.91771 37.9718 2.31553 37.3696C1.7133 36.7673 1.37647 35.9495 1.38017 35.098V33.7944H14.5392C14.722 33.7944 14.8975 33.7217 15.0269 33.5924C15.1562 33.4631 15.2288 33.2876 15.2288 33.1047V14.4835C15.2288 14.3006 15.1562 14.1251 15.0269 13.9958C14.8975 13.8665 14.722 13.7938 14.5392 13.7938H1.38017C1.42081 12.9751 1.77396 12.2035 2.36668 11.6377C2.95968 11.0718 3.74698 10.755 4.56655 10.7525C5.31842 10.747 6.03796 10.4459 6.56968 9.91414C7.1014 9.38239 7.40249 8.66287 7.40808 7.91101V7.22133H14.553V7.91101C14.5548 8.66503 14.8556 9.38794 15.3898 9.9206C15.9237 10.4533 16.6472 10.7525 17.4013 10.7525C18.247 10.7525 19.0583 11.0878 19.6569 11.6851C20.2554 12.2824 20.5925 13.0931 20.5944 13.9386V31.491H20.5393C20.3075 31.5027 20.0769 31.5329 19.8496 31.5809H19.7668C19.531 31.6302 19.3001 31.7016 19.0771 31.7946H19.022C18.8047 31.8867 18.5968 32 18.4013 32.1327C18.1947 32.2737 18.0008 32.4332 17.8222 32.6084C17.0574 33.3756 16.6282 34.4151 16.6288 35.4982C16.6309 35.7294 16.6519 35.96 16.691 36.1879C16.691 36.2501 16.691 36.312 16.7322 36.3809C16.7664 36.542 16.8101 36.7008 16.8634 36.8569C16.8809 36.9154 16.9019 36.973 16.9256 37.0293C17.0044 37.2338 17.0989 37.4321 17.2082 37.6223L17.2427 37.6636C17.3474 37.8357 17.465 37.9992 17.5943 38.1535L17.6426 38.2156L17.3804 38.3049ZM28.9188 38.3049H20.7326C20.2803 38.2926 19.8385 38.1642 19.45 37.9324C19.3924 37.9019 19.337 37.8674 19.2843 37.8289L19.1396 37.7322C19.0913 37.7322 19.0429 37.6494 18.9949 37.6082L18.8637 37.4979L18.7397 37.36C18.6975 37.3243 18.6581 37.2849 18.6223 37.2427C18.5817 37.1925 18.5448 37.1396 18.5121 37.0841L18.4154 36.953L18.3326 36.7738C18.3034 36.7276 18.2778 36.6793 18.2569 36.6288C18.2569 36.5666 18.2085 36.4976 18.1879 36.4357C18.1673 36.3735 18.1534 36.339 18.1396 36.291C18.1257 36.2427 18.1051 36.1392 18.0912 36.0635C18.0878 36.0219 18.0878 35.9807 18.0912 35.9391C18.0808 35.8175 18.0808 35.6953 18.0912 35.5736C18.0931 34.8559 18.3794 34.1684 18.8877 33.6616C19.3957 33.1548 20.0842 32.87 20.8015 32.87H24.1397V35.5736C24.1397 35.9545 24.4485 36.2633 24.8294 36.2633C25.2103 36.2633 25.5191 35.9545 25.5191 35.5736V32.87H27.8362C27.8362 32.9735 27.8362 33.0769 27.795 33.1736V33.3667V33.8633C27.7953 34.0939 27.8091 34.3242 27.8362 34.553C27.8362 34.6219 27.8362 34.6909 27.8707 34.7666C27.8907 34.9249 27.9206 35.0816 27.9606 35.2359C27.9606 35.3116 27.9951 35.3944 28.0157 35.4705C28.0363 35.5462 28.1053 35.767 28.1604 35.912V35.9117C28.1817 35.9844 28.2069 36.0558 28.2365 36.1254C28.307 36.3067 28.3873 36.4841 28.4779 36.6565L28.5191 36.7461C28.6293 36.9391 28.7466 37.1322 28.8707 37.3184C28.912 37.3806 28.9603 37.4357 29.0087 37.4976C29.057 37.5598 29.1878 37.739 29.2913 37.8563L29.4705 38.0494L29.5946 38.1941L29.5949 38.1944C29.3895 38.2461 29.1792 38.276 28.9674 38.284L28.9188 38.3049ZM33.8638 38.643V38.6427C32.922 38.6467 32.0011 38.3653 31.2224 37.8357C29.921 36.9487 29.1457 35.4727 29.1534 33.8978C29.1466 33.395 29.2211 32.8941 29.3742 32.415C29.5632 31.8236 29.8705 31.277 30.2775 30.8081L36.9606 37.498C36.1003 38.2295 35.0067 38.6283 33.8777 38.6221L33.8638 38.643Z" fill="#EF4444"/>
</svg>
